<mxfile host="app.diagrams.net" modified="2024-04-15T04:45:44.784Z" agent="Mozilla/5.0 (Windows NT 10.0; Win64; x64) AppleWebKit/537.36 (KHTML, like Gecko) Chrome/123.0.0.0 Safari/537.36" version="24.2.5" etag="zwt9Av08eKufL3blSJ0H" type="github">
  <diagram name="Page-1" id="KnpTpJEQaenAIHgt31tn">
    <mxGraphModel>
      <root>
        <mxCell id="0" />
        <mxCell id="1" parent="0" />
      </root>
    </mxGraphModel>
  </diagram>
</mxfile>
